<?xml version="1.0" encoding="UTF-8"?>
<svg id="_レイヤー_2" data-name="レイヤー_2" xmlns="http://www.w3.org/2000/svg" xmlns:xlink="http://www.w3.org/1999/xlink" viewBox="0 0 166.45 166.45">
  <defs>
    <style>
      .cls-1 {
        fill: #fff;
      }

      .cls-2 {
        fill: url(#_名称未設定グラデーション);
      }
    </style>
    <linearGradient id="_名称未設定グラデーション" data-name="名称未設定グラデーション" x1="58.54" y1="10.59" x2="105.22" y2="32.64" gradientTransform="translate(0 137.28) scale(1 -1)" gradientUnits="userSpaceOnUse">
      <stop offset="0" stop-color="#d83333"/>
      <stop offset="1" stop-color="#f041ff"/>
    </linearGradient>
  </defs>
  <g id="_レイヤー_1-2" data-name="レイヤー_1">
    <circle cx="83.23" cy="83.23" r="83.23"/>
    <g>
      <path class="cls-1" d="M68.4,120.86c-4.83-4.42-6.24-13.7-4.23-20.43,3.49,4.24,8.33,5.58,13.34,6.34,7.74,1.17,15.34.73,22.52-2.8.82-.4,1.58-.94,2.48-1.49.67,1.96.85,3.93.61,5.94-.57,4.9-3.01,8.68-6.88,11.55-1.55,1.15-3.19,2.17-4.79,3.25-4.92,3.32-6.25,7.22-4.4,12.89.04.14.08.28.18.61-2.51-1.12-4.34-2.76-5.74-4.91-1.48-2.27-2.18-4.78-2.21-7.5-.02-1.32-.02-2.66-.2-3.96-.43-3.18-1.93-4.6-4.74-4.68-2.88-.08-5.17,1.7-5.77,4.51-.05.22-.11.43-.18.68h0Z"/>
      <path class="cls-2" d="M68.4,120.86c-4.83-4.42-6.24-13.7-4.23-20.43,3.49,4.24,8.33,5.58,13.34,6.34,7.74,1.17,15.34.73,22.52-2.8.82-.4,1.58-.94,2.48-1.49.67,1.96.85,3.93.61,5.94-.57,4.9-3.01,8.68-6.88,11.55-1.55,1.15-3.19,2.17-4.79,3.25-4.92,3.32-6.25,7.22-4.4,12.89.04.14.08.28.18.61-2.51-1.12-4.34-2.76-5.74-4.91-1.48-2.27-2.18-4.78-2.21-7.5-.02-1.32-.02-2.66-.2-3.96-.43-3.18-1.93-4.6-4.74-4.68-2.88-.08-5.17,1.7-5.77,4.51-.05.22-.11.43-.18.68h0Z"/>
      <path class="cls-1" d="M40.81,99.31s14.31-6.97,28.67-6.97l10.82-33.49c.41-1.62,1.59-2.72,2.92-2.72s2.52,1.1,2.92,2.72l10.82,33.49c17,0,28.67,6.97,28.67,6.97,0,0-24.31-66.23-24.36-66.37-.7-1.96-1.88-3.22-3.46-3.22h-29.18c-1.59,0-2.72,1.26-3.46,3.22-.05.13-24.36,66.37-24.36,66.37Z"/>
    </g>
  </g>
</svg>