<?xml version="1.0" encoding="UTF-8"?>
<svg id="_レイヤー_2" data-name="レイヤー 2" xmlns="http://www.w3.org/2000/svg" viewBox="0 0 600 584.86">
  <defs>
    <style>
      .cls-1 {
        fill: #310000;
      }

      .cls-1, .cls-2 {
        fill-rule: evenodd;
      }

      .cls-2 {
        fill: #fe9900;
      }
    </style>
  </defs>
  <g id="_レイヤー_1-2" data-name="レイヤー 1">
    <path class="cls-1" d="M397.04,410.09c-.31-3.04-.04-59.23-.04-63.97v-127.95c-.01-5.87,1.62-4.72,11.09-4.72h39.99c3.13-.02,4.69,0,4.91,3.28.36,5.36.02,25.04.02,32v95.96c0,21.31.16,42.67,0,63.97-.04,5.98-2.41,4.74-11.22,4.74h-39.99c-2.7,0-4.48-.66-4.75-3.32h0ZM211.04,148.71h62.79c4.47,0,3.81.96,6.61,8.93,9.47,26.87,19.46,54.11,28.7,80.96,5.31,15.44,10.84,30.88,16.37,46.18,5.56,15.38,10.82,30.79,16.37,46.17,5.53,15.29,11.05,30.74,16.37,46.17,2.65,7.7,5.52,15.3,8.14,22.99.78,2.29,4.55,10.33,2.25,11.66-1.41.81-42.94.39-46.51.39-12.97,0-9.78,2.39-16.01-15.46l-12.08-35.04c-1.35-3.88-2.54-7.88-4.06-11.64l-92.89-.07c-1.35,2.81-2.64,8.04-3.76,11.32-1.28,3.78-2.49,7.62-3.71,11.43l-11.15,34.54c-1.92,6.06-3.49,4.93-10.27,4.93h-30.56c-16.92,0-16.31,2.14-11.21-12.99,2.56-7.59,5.22-15.1,7.89-22.67,21.16-59.98,41.61-120.54,62.73-180.58,5.12-14.56,10.67-26.9,10.92-42.56.05-2.99-.25-4.64,3.07-4.64h0ZM394.43,165.35c-1.12-10.77,1.09-16.77,6.59-24.49,1.78-2.49,5.16-5.13,8.45-6.98,3.41-1.93,7.39-3.36,11.81-3.9,9.92-1.21,18.2,1.31,24.31,6.14,19.29,15.25,12.71,53.35-15.91,56.24-10.79,1.09-17.73-1.72-24.44-6.46-5.71-4.03-10.02-12.94-10.81-20.55h0ZM0,101.83v382.5c.41,1.13.94,8.81,1.29,11,.57,3.59,1.32,7.01,2.19,10.39,1.73,6.75,4,12.45,6.7,18.42,4.02,8.87,11.97,20.85,19.27,27.86.59.57.96,1.02,1.54,1.61,15.41,15.62,35.43,26.15,58.09,29.9,2.22.37,10.03.91,11.22,1.37h399.42c1.25-.48,8.72-.98,11-1.35,18.55-2.99,33.53-9.93,48.16-20.92,4.34-3.27,6.37-5.22,10.01-8.84l5.92-6.36c.52-.67.9-1.01,1.43-1.72.46-.62.96-1.17,1.4-1.73.96-1.21,1.78-2.41,2.65-3.65,3.43-4.89,6.6-9.79,9.36-15.77,10.69-23.18,9.17-36.86,10.36-39.95V101.05c-.47-1.47-.9-9.02-1.29-11.51-2.39-15.01-9.18-33-18.17-44.65-4.92-6.37-4.11-5.85-9.98-12.01-.58-.6-.94-1.02-1.53-1.62l-8.36-7.63c-.86-.75-1.01-.78-1.78-1.36-1.35-1-2.23-1.75-3.58-2.7-9.94-6.98-21.92-12.96-34.22-16.03-3.46-.86-6.75-1.63-10.38-2.2-2.09-.33-10.19-.95-11.24-1.33H99.79c-2.93,1.19-18.33.07-40.03,10.64-13.76,6.7-29.36,18.99-38.13,31.26-.93,1.3-1.73,2.42-2.62,3.67C9.95,58.19,3.41,74.77,1.14,90.53c-.4,2.81-.61,9.25-1.14,11.3h0Z"/>
    <path class="cls-2" d="M219.84,273.53c2.68-8.73,5.1-17.22,7.84-25.86,5.08-15.98,9.52-29.75,13.36-46.05.28-1.19.53-2.27.8-3.51l.58-2.53c.33-.85.08-.25.33-.62l3.99,13.22c5.62,20.9,13.52,44.39,20.02,65.36,1.42,4.6,7.82,22.58,8.12,25.62h-63.19l8.16-25.64h0ZM211.04,148.71c-3.33,0-3.03,1.65-3.07,4.64-.25,15.67-5.8,28.01-10.92,42.56-21.12,60.04-41.57,120.6-62.73,180.58-2.67,7.56-5.33,15.08-7.89,22.67-5.1,15.13-5.71,12.99,11.21,12.99h30.56c6.78,0,8.35,1.13,10.27-4.93l11.15-34.54c1.22-3.81,2.43-7.65,3.71-11.43,1.11-3.29,2.41-8.52,3.76-11.32l92.89.07c1.53,3.76,2.71,7.77,4.06,11.64l12.08,35.04c6.23,17.85,3.04,15.46,16.01,15.46,3.57,0,45.09.42,46.51-.39,2.31-1.33-1.46-9.37-2.25-11.66-2.62-7.68-5.49-15.29-8.14-22.99-5.32-15.43-10.84-30.88-16.37-46.17-5.55-15.38-10.82-30.79-16.37-46.17-5.53-15.29-11.05-30.73-16.37-46.18-9.24-26.85-19.24-54.09-28.7-80.96-2.8-7.97-2.14-8.93-6.61-8.93h-62.79Z"/>
    <path class="cls-2" d="M397.04,410.09c.27,2.66,2.05,3.31,4.75,3.32h39.99c8.81,0,11.18,1.23,11.22-4.74.15-21.3,0-42.67,0-63.97v-95.96c0-6.96.35-26.64-.02-32-.22-3.28-1.77-3.3-4.91-3.29h-39.99c-9.47,0-11.11-1.15-11.1,4.72v127.95c0,4.75-.26,60.93.05,63.97h0Z"/>
    <path class="cls-1" d="M211.68,299.17h63.19c-.3-3.04-6.69-21.02-8.12-25.62-6.5-20.98-14.4-44.46-20.02-65.36l-3.99-13.22c-.26.36,0-.24-.33.62l-.58,2.53c-.27,1.24-.52,2.32-.8,3.51-3.84,16.29-8.28,30.07-13.36,46.05-2.74,8.64-5.16,17.12-7.84,25.86l-8.16,25.64h0Z"/>
    <path class="cls-2" d="M394.43,165.35c.79,7.61,5.1,16.51,10.81,20.55,6.71,4.74,13.65,7.54,24.44,6.46,28.63-2.88,35.21-40.99,15.91-56.24-6.11-4.83-14.39-7.34-24.31-6.14-4.42.54-8.4,1.98-11.81,3.9-3.29,1.85-6.67,4.49-8.45,6.98-5.5,7.72-7.71,13.72-6.59,24.49h0Z"/>
  </g>
</svg>