<?xml version="1.0" encoding="UTF-8"?>
<svg id="_レイヤー_2" data-name="レイヤー 2" xmlns="http://www.w3.org/2000/svg" xmlns:xlink="http://www.w3.org/1999/xlink" viewBox="0 0 50 50">
  <defs>
    <style>
      .cls-1 {
        fill: #b9ffb3;
      }

      .cls-2 {
        fill: #12fff7;
      }

      .cls-2, .cls-3, .cls-4 {
        fill-rule: evenodd;
      }

      .cls-3 {
        fill: url(#_名称未設定グラデーション_2);
      }

      .cls-4 {
        fill: url(#_名称未設定グラデーション);
      }
    </style>
    <linearGradient id="_名称未設定グラデーション" data-name="名称未設定グラデーション" x1="38.04" y1="-35.76" x2="13.43" y2="-7.64" gradientTransform="translate(0 4.14) scale(1 -1)" gradientUnits="userSpaceOnUse">
      <stop offset="0" stop-color="#b9ffb3"/>
      <stop offset="1" stop-color="#b9ffb3" stop-opacity="0"/>
    </linearGradient>
    <linearGradient id="_名称未設定グラデーション_2" data-name="名称未設定グラデーション 2" x1="41.95" y1="-27.49" x2="25.26" y2="-20.96" gradientTransform="translate(0 4.14) scale(1 -1)" gradientUnits="userSpaceOnUse">
      <stop offset="0" stop-color="#1a1a1a" stop-opacity=".9"/>
      <stop offset="1" stop-color="#1a1a1a" stop-opacity="0"/>
    </linearGradient>
  </defs>
  <g id="_レイヤー_1-2" data-name="レイヤー 1">
    <g>
      <rect width="50" height="50" rx="3.54" ry="3.54"/>
      <g>
        <path class="cls-2" d="M10.93,15.83c0-2.67,2.17-4.83,4.85-4.83h18.44c2.68,0,4.85,2.16,4.85,4.83v15.6c0,2.76-3.51,3.95-5.21,1.78l-5.32-6.81v8.26c0,2.4-1.95,4.34-4.37,4.34h-8.39c-2.68,0-4.85-2.16-4.85-4.83V15.83ZM15.78,14.86c-.53,0-.97.43-.97.97v18.34c0,.53.44.97.97.97h8.54c.27,0,.34-.22.34-.48v-11.07c0-2.76,3.51-3.96,5.21-1.78l5.32,6.81v-12.79c0-.53.05-.97-.49-.97H15.78Z"/>
        <path class="cls-4" d="M10.93,15.83c0-2.67,2.17-4.83,4.85-4.83h18.44c2.68,0,4.85,2.16,4.85,4.83v15.6c0,2.76-3.51,3.95-5.21,1.78l-5.32-6.81v8.26c0,2.4-1.95,4.34-4.37,4.34h-8.39c-2.68,0-4.85-2.16-4.85-4.83V15.83ZM15.78,14.86c-.53,0-.97.43-.97.97v18.34c0,.53.44.97.97.97h8.54c.27,0,.34-.22.34-.48v-11.07c0-2.76,3.51-3.96,5.21-1.78l5.32,6.81v-12.79c0-.53.05-.97-.49-.97H15.78Z"/>
        <path class="cls-3" d="M10.93,15.83c0-2.67,2.17-4.83,4.85-4.83h18.44c2.68,0,4.85,2.16,4.85,4.83v15.6c0,2.76-3.51,3.95-5.21,1.78l-5.32-6.81v8.26c0,2.4-1.95,4.34-4.37,4.34h-8.39c-2.68,0-4.85-2.16-4.85-4.83V15.83ZM15.78,14.86c-.53,0-.97.43-.97.97v18.34c0,.53.44.97.97.97h8.54c.27,0,.34-.22.34-.48v-11.07c0-2.76,3.51-3.96,5.21-1.78l5.32,6.81v-12.79c0-.53.05-.97-.49-.97H15.78Z"/>
        <path class="cls-1" d="M34.22,11c2.68,0,4.85,2.16,4.85,4.83v15.6c0,2.76-3.51,3.95-5.21,1.78l-5.32-6.81v8.26c0,2.4-1.95,4.34-4.37,4.34.27,0,.48-.22.48-.48h0v-14.93c0-2.76,3.51-3.95,5.21-1.78l5.32,6.81V11.97c0-.53-.44-.97-.97-.96"/>
      </g>
    </g>
  </g>
</svg>