<?xml version="1.0" encoding="UTF-8"?>
<svg id="_レイヤー_2" data-name="レイヤー 2" xmlns="http://www.w3.org/2000/svg" viewBox="0 0 600 584.99">
  <defs>
    <style>
      .cls-1 {
        fill: #001d36;
      }

      .cls-1, .cls-2 {
        fill-rule: evenodd;
      }

      .cls-2 {
        fill: #30a7fe;
      }
    </style>
  </defs>
  <g id="_レイヤー_1-2" data-name="レイヤー 1">
    <path class="cls-1" d="M351.18,357.97c1.21-.66.13-.54,2.2-.54l3.89,1.51c1.99,1.16,3.43,1.98,5.53,2.94,3.86,1.77,7.76,3.39,12.08,4.79,8.23,2.69,17.75,4.86,27.02,5.86,9.13.99,21.54,1.27,30.05-1.52,9.16-3,14.01-11.91,6.23-19.82-7.89-8.01-32.19-15.06-44.96-21.58-17.1-8.73-26.56-15.37-35.56-30.08-9.26-15.13-7.56-38.84.35-54.02,6.78-13.01,19.62-23.73,36.18-29.45,21.81-7.53,66.89-6.89,87.04,2.09,5.67,2.52,4.58,5.65,4.53,12.47l.07,32.95c-.79,7.27-6.84,3.31-11.01,1.26-13.54-6.65-41.57-11.12-56.6-8.67-8.01,1.31-18.55,6.48-14.08,16.51,4.69,10.52,29.98,18.1,42.92,23.67,15.79,6.8,30.93,15.86,39.05,26.58,9.88,13.04,13.02,34.68,6.32,53.26-5.48,15.2-18.09,27.43-31.96,33.64-28.78,12.89-83.42,11.51-109.09-3.54-1.05-5.14-1.41-43.52-.21-48.32h0ZM94.31,0h410.67c5.08,2.39,13.56,2.63,19.31,4.43,35.49,11.14,61.84,37.45,71.89,73.47,1.53,5.47,2.46,16.45,3.81,20.22v387.94c-1.34,4.04-2.11,14.71-3.61,20.28-10.32,38.4-41.73,68.68-81.1,76.46l-8.79,1.88c-.15-.24-.54.18-.8.31H94.31c-.26-.13-.59-.24-.8-.31l-1.6-.54c-.28-.08-.51-.14-.8-.21-.61-.15-1.74-.33-2.4-.44-1.63-.29-3.17-.54-4.81-.88-8.01-1.66-18.82-5.45-25.72-8.97-19.87-10.12-36.77-26.98-46.86-46.82-3.87-7.61-10.11-27.06-11.01-35.34-.05-.45-.19-.55-.31-.81V95.01c4-8.52,1.95-34.03,30.58-63.49,5.4-5.55,17.68-15.24,27.03-19.83,7.95-3.91,17.33-7.47,26.3-9.31,7.5-1.55,7.17-.81,10.41-2.37h0ZM134.99,155.62c0-7.9,6.12-5.35,14.07-5.56,6.33-.17,12.81-.35,19.04-.51,43.21-1.15,91.29-5.33,125.04,21.37,20.84,16.48,31.49,41.5,30.79,70.02-.77,31.15-10.66,50.57-32.57,68.25-29.54,23.84-68.59,20.57-102.11,20.57.02,16.24.89,71.13-.48,83.21-10.73,1.15-35.11.54-47.21.54-5.65,0-6.57-.15-6.57-5.69v-252.19h0Z"/>
    <path class="cls-2" d="M189.51,282.34c0-12.41-1.42-77.32.57-83.83,97.62-10.52,82.46,53.41,72.3,65.73-15.96,19.37-49.03,21.05-72.87,18.1h0ZM134.99,155.62v252.19c0,5.54.92,5.69,6.57,5.69,12.1,0,36.48.61,47.21-.54,1.38-12.09.5-66.98.48-83.21,33.52,0,72.57,3.28,102.11-20.57,21.91-17.68,31.8-37.1,32.57-68.25.7-28.51-9.95-53.54-30.79-70.02-33.75-26.69-81.83-22.52-125.04-21.37-6.23.16-12.71.34-19.04.51-7.96.21-14.07-2.34-14.07,5.56h0Z"/>
    <path class="cls-2" d="M351.18,357.97c-1.2,4.8-.84,43.18.21,48.32,25.66,15.05,80.31,16.43,109.09,3.54,13.87-6.22,26.48-18.45,31.96-33.64,6.7-18.59,3.56-40.22-6.32-53.26-8.12-10.72-23.26-19.78-39.05-26.58-12.93-5.57-38.23-13.15-42.92-23.67-4.48-10.04,6.06-15.2,14.08-16.51,15.03-2.45,43.06,2.02,56.6,8.67,4.17,2.05,10.22,6.01,11.01-1.26l-.07-32.95c.05-6.82,1.14-9.95-4.53-12.47-20.15-8.98-65.23-9.62-87.04-2.09-16.56,5.71-29.4,16.44-36.18,29.45-7.91,15.18-9.61,38.89-.35,54.02,9,14.71,18.46,21.35,35.56,30.08,12.77,6.52,37.07,13.56,44.96,21.58,7.78,7.91,2.92,16.82-6.23,19.82-8.51,2.79-20.92,2.51-30.05,1.52-9.28-1-18.79-3.17-27.02-5.86-4.32-1.41-8.22-3.02-12.08-4.79-2.1-.96-3.55-1.78-5.53-2.94l-3.89-1.51c-2.07,0-.99-.12-2.2.54h0Z"/>
    <path class="cls-1" d="M189.51,282.34c23.85,2.95,56.91,1.27,72.87-18.1,10.16-12.32,25.32-76.26-72.3-65.73-1.99,6.51-.57,71.43-.57,83.83h0Z"/>
  </g>
</svg>