<?xml version="1.0" encoding="UTF-8"?>
<svg id="_レイヤー_2" data-name="レイヤー 2" xmlns="http://www.w3.org/2000/svg" viewBox="0 0 600 585.16">
  <defs>
    <style>
      .cls-1 {
        fill: #9898fd;
      }

      .cls-1, .cls-2 {
        fill-rule: evenodd;
      }

      .cls-2 {
        fill: #00005b;
      }
    </style>
  </defs>
  <g id="_レイヤー_1-2" data-name="レイヤー 1">
    <path class="cls-2" d="M196.76,329.33v69.15c0,4.03,1.64,13.27-2.4,14.45l-43.07.17c-1.48,0-3.15.08-4.6.04-2.24-.06-2.13.13-3.26-1.17-1.88-2.06-.93-85.66-.93-95.13v-156.42c0-13.53-3.54-10.36,25.19-11.12,51.55-1.37,118.95-9.14,150.27,40.27,16.44,25.93,18.82,67.65,2.35,95.35-1.59,2.67-2.83,4.99-4.76,7.23-10.28,11.98-15.54,18.28-33.65,26.86-24.54,11.61-55.95,10.83-85.14,10.32h0ZM419.76,239.69c1.57-1.01,3.99-4.3,5.77-5.97,7.1-6.64,12.24-10.36,21.59-15.52,7.8-4.3,29.55-11.92,40.07-8.85,1.59,4.13,1.08,51.86.39,53.06-.49.86.04,1.67-4.57,1.67-18.76-.02-44.55,4.19-57.99,16.51-2.69,2.46-1.75,6.29-1.75,11.14,0,12.06.82,115.92-.55,121.31-6.03,1.57-32.72.59-41.35.59-12.66,0-14.67,1.53-14.62-5.99l.02-107.36c0-28.27-.38-55.38-1.71-83.47-.26-5.49,5.15-3.77,16.89-3.77,7.23,0,14.46,0,21.69,0,9.08,0,11.76-1.45,13.82,7.15,1.52,6.38,2.04,12.82,2.32,19.48h0ZM0,99.74v386.16c1.63,4.24-.11,16.69,10.5,39.07,4.42,9.33,13.19,21.97,20.47,29.21l13.44,11.11c15.16,9.59,25.15,15.05,43.92,18.34,3.31.58,8.03.4,10.94,1.52h401.47c4.37-1.68,16.48.19,39.09-10.5,5.88-2.78,10.94-5.97,15.83-9.32,14.03-9.6,26.87-25.46,34.02-40.77,2.8-5.98,4.88-11.59,6.76-18.36,2.1-7.58,3.21-20.26,3.57-21.3V98.29c-1.67-4.01-.48-17.78-10.88-38.88-4.67-9.48-13-21.44-20.36-28.74-15.1-14.98-36.23-25.59-57.55-29.23-3.27-.56-7.71-.38-10.46-1.44H98.77c-2.84,1.13-7.64,1.02-10.95,1.61-9.61,1.7-19.53,4.94-28.02,9.08-5.96,2.9-10.92,5.98-15.8,9.35-2.58,1.78-4.58,3.87-6.86,5.66-2.47,1.94-4.23,3.3-6.45,5.56-12.62,12.84-22.27,30.01-27.15,47.66-1.94,7.02-3.18,19.83-3.53,20.83h0Z"/>
    <path class="cls-1" d="M197.23,282.31l-.23-84c15.74-1.79,41.32-1.36,56.44,4.39,28.48,10.82,27.42,47.25,16.68,61.14-15.47,20-48.72,20.57-72.89,18.47h0ZM196.76,329.33c29.19.51,60.6,1.29,85.14-10.32,18.11-8.58,23.37-14.88,33.65-26.86,1.92-2.24,3.17-4.56,4.76-7.23,16.47-27.7,14.09-69.42-2.35-95.35-31.33-49.41-98.72-41.64-150.27-40.27-28.73.76-25.19-2.41-25.19,11.12v156.42c0,9.47-.95,93.07.93,95.13,1.13,1.29,1.02,1.1,3.26,1.17,1.44.04,3.12-.04,4.6-.04l43.07-.17c4.04-1.18,2.4-10.42,2.4-14.45v-69.15h0Z"/>
    <path class="cls-1" d="M419.76,239.69c-.28-6.67-.8-13.11-2.32-19.48-2.05-8.61-4.74-7.15-13.82-7.15-7.23,0-14.46,0-21.69,0-11.73,0-17.14-1.72-16.89,3.77,1.33,28.09,1.71,55.2,1.71,83.47l-.02,107.36c-.04,7.52,1.97,5.99,14.62,5.99,8.64,0,35.33.98,41.35-.59,1.37-5.39.55-109.25.55-121.31,0-4.85-.94-8.68,1.75-11.14,13.44-12.32,39.23-16.53,57.99-16.51,4.61,0,4.08-.81,4.57-1.67.69-1.21,1.2-48.94-.39-53.06-10.52-3.06-32.26,4.55-40.07,8.85-9.35,5.16-14.49,8.88-21.59,15.52-1.78,1.67-4.2,4.96-5.77,5.97h0Z"/>
    <path class="cls-2" d="M197.23,282.31c24.17,2.09,57.42,1.52,72.89-18.47,10.74-13.89,11.8-50.31-16.68-61.14-15.12-5.75-40.69-6.18-56.44-4.39l.23,84h0Z"/>
  </g>
</svg>