<?xml version="1.0" encoding="UTF-8"?>
<svg id="_レイヤー_2" data-name="レイヤー 2" xmlns="http://www.w3.org/2000/svg" xmlns:xlink="http://www.w3.org/1999/xlink" viewBox="0 0 750 750">
  <defs>
    <style>
      .cls-1 {
        fill: none;
      }

      .cls-2 {
        fill: #123a50;
      }

      .cls-3 {
        clip-path: url(#clippath);
      }
    </style>
    <clipPath id="clippath">
      <rect class="cls-1" width="750" height="750"/>
    </clipPath>
  </defs>
  <g id="_レイヤー_1-2" data-name="レイヤー 1">
    <g class="cls-3">
      <path class="cls-2" d="M371.14,11.91c19.48-7.54,43.03,2.31,51.12,21.54,83.66,177.86,166.94,355.89,250.43,533.83,10.19,21.97-2.78,50.82-26.38,56.99-127.59,38.02-255.18,75.95-382.78,113.89-15.24,5.35-33.01,1.93-44.49-9.68-7.45-8.43-12.97-18.37-19.1-27.74-39.65-61.7-79.3-123.35-118.77-185.14-9.42-13.32-9.89-31.73-1.11-45.47C169.69,324.09,259.56,178.21,349.18,32.17c5.31-8.52,12.12-16.91,21.96-20.25M388.78,108.93c-38.96,186.59-77.45,373.31-116.03,559.99-4.5,11.73,9.25,22.01,19.82,16.44,107.56-31.94,215.15-63.71,322.58-96.04,9.89-1.84,15.54-13.83,10.1-22.48-71.67-155.29-145.23-309.77-216.91-465.07-7.11-3.08-18.58-2.53-19.57,7.15"/>
    </g>
  </g>
</svg>