<?xml version="1.0" encoding="UTF-8"?>
<svg id="_レイヤー_2" data-name="レイヤー_2" xmlns="http://www.w3.org/2000/svg" viewBox="0 0 666.67 666.67">
  <defs>
    <style>
      .cls-1 {
        fill: #21759b;
      }
    </style>
  </defs>
  <g id="W_Mark">
    <g id="W_Mark-2" data-name="W_Mark">
      <path class="cls-1" d="M333.33,20c42.31,0,83.34,8.28,121.96,24.62,18.56,7.85,36.47,17.57,53.22,28.89,16.6,11.21,32.2,24.09,46.39,38.27,14.18,14.18,27.06,29.79,38.27,46.39,11.32,16.75,21.03,34.65,28.89,53.22,16.33,38.62,24.62,79.65,24.62,121.96s-8.28,83.34-24.62,121.96c-7.85,18.56-17.57,36.47-28.89,53.22-11.21,16.6-24.09,32.2-38.27,46.39-14.18,14.18-29.79,27.06-46.39,38.27-16.75,11.32-34.65,21.03-53.22,28.89-38.62,16.33-79.65,24.62-121.96,24.62s-83.34-8.28-121.96-24.62c-18.56-7.85-36.47-17.57-53.22-28.89-16.6-11.21-32.2-24.09-46.39-38.27-14.18-14.18-27.06-29.79-38.27-46.39-11.32-16.75-21.03-34.65-28.89-53.22-16.33-38.62-24.62-79.65-24.62-121.96s8.28-83.34,24.62-121.96c7.85-18.56,17.57-36.47,28.89-53.22,11.21-16.6,24.09-32.2,38.27-46.39,14.18-14.18,29.79-27.06,46.39-38.27,16.75-11.32,34.65-21.03,53.22-28.89,38.62-16.33,79.65-24.62,121.96-24.62M333.33,0C149.24,0,0,149.24,0,333.33s149.24,333.33,333.33,333.33,333.33-149.24,333.33-333.33S517.43,0,333.33,0h0Z"/>
      <path class="cls-1" d="M55.56,333.32c0,109.95,63.89,204.97,156.56,249.99L79.61,220.28c-15.41,34.54-24.05,72.77-24.05,113.04ZM520.86,319.31c0-34.34-12.33-58.11-22.9-76.61-14.08-22.89-27.29-42.26-27.29-65.15,0-25.53,19.36-49.3,46.65-49.3,1.23,0,2.4.15,3.6.22-49.42-45.28-115.27-72.93-187.58-72.93-97.05,0-182.42,49.8-232.09,125.2,6.52.21,12.67.34,17.88.34,29.05,0,74.03-3.53,74.03-3.53,14.97-.88,16.74,21.12,1.78,22.89,0,0-15.05,1.76-31.79,2.64l101.15,300.88,60.8-182.31-43.27-118.57c-14.97-.88-29.13-2.64-29.13-2.64-14.97-.88-13.22-23.77,1.76-22.89,0,0,45.86,3.53,73.16,3.53,29.05,0,74.04-3.53,74.04-3.53,14.97-.88,16.74,21.12,1.77,22.89,0,0-15.07,1.76-31.79,2.64l100.39,298.59,28.66-90.8c12.73-39.68,20.19-67.8,20.19-91.57ZM338.21,357.62l-83.36,242.17c24.89,7.32,51.21,11.32,78.48,11.32,32.35,0,63.38-5.58,92.25-15.75-.74-1.19-1.43-2.45-1.99-3.83l-85.38-233.91ZM577.09,200.07c1.19,8.85,1.87,18.34,1.87,28.56,0,28.18-5.28,59.86-21.13,99.49l-84.84,245.3c82.58-48.15,138.12-137.61,138.12-240.09,0-48.29-12.34-93.7-34.02-133.26Z"/>
    </g>
  </g>
</svg>